<?xml version="1.0" encoding="utf-8" standalone="no"?>
<!DOCTYPE svg PUBLIC "-//W3C//DTD SVG 1.1//EN"
  "http://www.w3.org/Graphics/SVG/1.1/DTD/svg11.dtd">
<svg xmlns:xlink="http://www.w3.org/1999/xlink" width="576pt" height="288pt" viewBox="0 0 576 288" xmlns="http://www.w3.org/2000/svg" version="1.1">
 <metadata>
  <rdf:RDF xmlns:dc="http://purl.org/dc/elements/1.1/" xmlns:cc="http://creativecommons.org/ns#" xmlns:rdf="http://www.w3.org/1999/02/22-rdf-syntax-ns#">
   <cc:Work>
    <dc:type rdf:resource="http://purl.org/dc/dcmitype/StillImage"/>
    <dc:date>2025-05-22T17:48:36.805374</dc:date>
    <dc:format>image/svg+xml</dc:format>
    <dc:creator>
     <cc:Agent>
      <dc:title>Matplotlib v3.10.1, https://matplotlib.org/</dc:title>
     </cc:Agent>
    </dc:creator>
   </cc:Work>
  </rdf:RDF>
 </metadata>
 <defs>
  <style type="text/css">*{stroke-linejoin: round; stroke-linecap: butt}</style>
 </defs>
 <g id="figure_1">
  <g id="patch_1">
   <path d="M 0 288 
L 576 288 
L 576 0 
L 0 0 
z
" style="fill: #ffffff"/>
  </g>
  <g id="axes_1">
   <g id="patch_2">
    <path d="M 73.01 231.452197 
L 565.2 231.452197 
L 565.2 26.88 
L 73.01 26.88 
z
" style="fill: #ffffff"/>
   </g>
   <g id="matplotlib.axis_1">
    <g id="xtick_1">
     <g id="line2d_1">
      <path d="M 95.382273 231.452197 
L 95.382273 26.88 
" clip-path="url(#p55853ae981)" style="fill: none; stroke: #b0b0b0; stroke-width: 0.8; stroke-linecap: square"/>
     </g>
     <g id="line2d_2">
      <defs>
       <path id="mec3f1bea47" d="M 0 0 
L 0 3.5 
" style="stroke: #000000; stroke-width: 0.8"/>
      </defs>
      <g>
       <use xlink:href="#mec3f1bea47" x="95.382273" y="231.452197" style="stroke: #000000; stroke-width: 0.8"/>
      </g>
     </g>
     <g id="text_1">
      <!-- 2022-11-01 -->
      <g transform="translate(68.02876 260.833155) rotate(-15) scale(0.1 -0.1)">
       <defs>
        <path id="DejaVuSans-32" d="M 1228 531 
L 3431 531 
L 3431 0 
L 469 0 
L 469 531 
Q 828 903 1448 1529 
Q 2069 2156 2228 2338 
Q 2531 2678 2651 2914 
Q 2772 3150 2772 3378 
Q 2772 3750 2511 3984 
Q 2250 4219 1831 4219 
Q 1534 4219 1204 4116 
Q 875 4013 500 3803 
L 500 4441 
Q 881 4594 1212 4672 
Q 1544 4750 1819 4750 
Q 2544 4750 2975 4387 
Q 3406 4025 3406 3419 
Q 3406 3131 3298 2873 
Q 3191 2616 2906 2266 
Q 2828 2175 2409 1742 
Q 1991 1309 1228 531 
z
" transform="scale(0.015625)"/>
        <path id="DejaVuSans-30" d="M 2034 4250 
Q 1547 4250 1301 3770 
Q 1056 3291 1056 2328 
Q 1056 1369 1301 889 
Q 1547 409 2034 409 
Q 2525 409 2770 889 
Q 3016 1369 3016 2328 
Q 3016 3291 2770 3770 
Q 2525 4250 2034 4250 
z
M 2034 4750 
Q 2819 4750 3233 4129 
Q 3647 3509 3647 2328 
Q 3647 1150 3233 529 
Q 2819 -91 2034 -91 
Q 1250 -91 836 529 
Q 422 1150 422 2328 
Q 422 3509 836 4129 
Q 1250 4750 2034 4750 
z
" transform="scale(0.015625)"/>
        <path id="DejaVuSans-2d" d="M 313 2009 
L 1997 2009 
L 1997 1497 
L 313 1497 
L 313 2009 
z
" transform="scale(0.015625)"/>
        <path id="DejaVuSans-31" d="M 794 531 
L 1825 531 
L 1825 4091 
L 703 3866 
L 703 4441 
L 1819 4666 
L 2450 4666 
L 2450 531 
L 3481 531 
L 3481 0 
L 794 0 
L 794 531 
z
" transform="scale(0.015625)"/>
       </defs>
       <use xlink:href="#DejaVuSans-32"/>
       <use xlink:href="#DejaVuSans-30" transform="translate(63.623047 0)"/>
       <use xlink:href="#DejaVuSans-32" transform="translate(127.246094 0)"/>
       <use xlink:href="#DejaVuSans-32" transform="translate(190.869141 0)"/>
       <use xlink:href="#DejaVuSans-2d" transform="translate(254.492188 0)"/>
       <use xlink:href="#DejaVuSans-31" transform="translate(290.576172 0)"/>
       <use xlink:href="#DejaVuSans-31" transform="translate(354.199219 0)"/>
       <use xlink:href="#DejaVuSans-2d" transform="translate(417.822266 0)"/>
       <use xlink:href="#DejaVuSans-30" transform="translate(453.90625 0)"/>
       <use xlink:href="#DejaVuSans-31" transform="translate(517.529297 0)"/>
      </g>
     </g>
    </g>
    <g id="xtick_2">
     <g id="line2d_3">
      <path d="M 157.013878 231.452197 
L 157.013878 26.88 
" clip-path="url(#p55853ae981)" style="fill: none; stroke: #b0b0b0; stroke-width: 0.8; stroke-linecap: square"/>
     </g>
     <g id="line2d_4">
      <g>
       <use xlink:href="#mec3f1bea47" x="157.013878" y="231.452197" style="stroke: #000000; stroke-width: 0.8"/>
      </g>
     </g>
     <g id="text_2">
      <!-- 2022-12-21 -->
      <g transform="translate(129.660365 260.833155) rotate(-15) scale(0.1 -0.1)">
       <use xlink:href="#DejaVuSans-32"/>
       <use xlink:href="#DejaVuSans-30" transform="translate(63.623047 0)"/>
       <use xlink:href="#DejaVuSans-32" transform="translate(127.246094 0)"/>
       <use xlink:href="#DejaVuSans-32" transform="translate(190.869141 0)"/>
       <use xlink:href="#DejaVuSans-2d" transform="translate(254.492188 0)"/>
       <use xlink:href="#DejaVuSans-31" transform="translate(290.576172 0)"/>
       <use xlink:href="#DejaVuSans-32" transform="translate(354.199219 0)"/>
       <use xlink:href="#DejaVuSans-2d" transform="translate(417.822266 0)"/>
       <use xlink:href="#DejaVuSans-32" transform="translate(453.90625 0)"/>
       <use xlink:href="#DejaVuSans-31" transform="translate(517.529297 0)"/>
      </g>
     </g>
    </g>
    <g id="xtick_3">
     <g id="line2d_5">
      <path d="M 218.645483 231.452197 
L 218.645483 26.88 
" clip-path="url(#p55853ae981)" style="fill: none; stroke: #b0b0b0; stroke-width: 0.8; stroke-linecap: square"/>
     </g>
     <g id="line2d_6">
      <g>
       <use xlink:href="#mec3f1bea47" x="218.645483" y="231.452197" style="stroke: #000000; stroke-width: 0.8"/>
      </g>
     </g>
     <g id="text_3">
      <!-- 2023-02-09 -->
      <g transform="translate(191.291971 260.833155) rotate(-15) scale(0.1 -0.1)">
       <defs>
        <path id="DejaVuSans-33" d="M 2597 2516 
Q 3050 2419 3304 2112 
Q 3559 1806 3559 1356 
Q 3559 666 3084 287 
Q 2609 -91 1734 -91 
Q 1441 -91 1130 -33 
Q 819 25 488 141 
L 488 750 
Q 750 597 1062 519 
Q 1375 441 1716 441 
Q 2309 441 2620 675 
Q 2931 909 2931 1356 
Q 2931 1769 2642 2001 
Q 2353 2234 1838 2234 
L 1294 2234 
L 1294 2753 
L 1863 2753 
Q 2328 2753 2575 2939 
Q 2822 3125 2822 3475 
Q 2822 3834 2567 4026 
Q 2313 4219 1838 4219 
Q 1578 4219 1281 4162 
Q 984 4106 628 3988 
L 628 4550 
Q 988 4650 1302 4700 
Q 1616 4750 1894 4750 
Q 2613 4750 3031 4423 
Q 3450 4097 3450 3541 
Q 3450 3153 3228 2886 
Q 3006 2619 2597 2516 
z
" transform="scale(0.015625)"/>
        <path id="DejaVuSans-39" d="M 703 97 
L 703 672 
Q 941 559 1184 500 
Q 1428 441 1663 441 
Q 2288 441 2617 861 
Q 2947 1281 2994 2138 
Q 2813 1869 2534 1725 
Q 2256 1581 1919 1581 
Q 1219 1581 811 2004 
Q 403 2428 403 3163 
Q 403 3881 828 4315 
Q 1253 4750 1959 4750 
Q 2769 4750 3195 4129 
Q 3622 3509 3622 2328 
Q 3622 1225 3098 567 
Q 2575 -91 1691 -91 
Q 1453 -91 1209 -44 
Q 966 3 703 97 
z
M 1959 2075 
Q 2384 2075 2632 2365 
Q 2881 2656 2881 3163 
Q 2881 3666 2632 3958 
Q 2384 4250 1959 4250 
Q 1534 4250 1286 3958 
Q 1038 3666 1038 3163 
Q 1038 2656 1286 2365 
Q 1534 2075 1959 2075 
z
" transform="scale(0.015625)"/>
       </defs>
       <use xlink:href="#DejaVuSans-32"/>
       <use xlink:href="#DejaVuSans-30" transform="translate(63.623047 0)"/>
       <use xlink:href="#DejaVuSans-32" transform="translate(127.246094 0)"/>
       <use xlink:href="#DejaVuSans-33" transform="translate(190.869141 0)"/>
       <use xlink:href="#DejaVuSans-2d" transform="translate(254.492188 0)"/>
       <use xlink:href="#DejaVuSans-30" transform="translate(290.576172 0)"/>
       <use xlink:href="#DejaVuSans-32" transform="translate(354.199219 0)"/>
       <use xlink:href="#DejaVuSans-2d" transform="translate(417.822266 0)"/>
       <use xlink:href="#DejaVuSans-30" transform="translate(453.90625 0)"/>
       <use xlink:href="#DejaVuSans-39" transform="translate(517.529297 0)"/>
      </g>
     </g>
    </g>
    <g id="xtick_4">
     <g id="line2d_7">
      <path d="M 280.277089 231.452197 
L 280.277089 26.88 
" clip-path="url(#p55853ae981)" style="fill: none; stroke: #b0b0b0; stroke-width: 0.8; stroke-linecap: square"/>
     </g>
     <g id="line2d_8">
      <g>
       <use xlink:href="#mec3f1bea47" x="280.277089" y="231.452197" style="stroke: #000000; stroke-width: 0.8"/>
      </g>
     </g>
     <g id="text_4">
      <!-- 2023-03-31 -->
      <g transform="translate(252.923576 260.833155) rotate(-15) scale(0.1 -0.1)">
       <use xlink:href="#DejaVuSans-32"/>
       <use xlink:href="#DejaVuSans-30" transform="translate(63.623047 0)"/>
       <use xlink:href="#DejaVuSans-32" transform="translate(127.246094 0)"/>
       <use xlink:href="#DejaVuSans-33" transform="translate(190.869141 0)"/>
       <use xlink:href="#DejaVuSans-2d" transform="translate(254.492188 0)"/>
       <use xlink:href="#DejaVuSans-30" transform="translate(290.576172 0)"/>
       <use xlink:href="#DejaVuSans-33" transform="translate(354.199219 0)"/>
       <use xlink:href="#DejaVuSans-2d" transform="translate(417.822266 0)"/>
       <use xlink:href="#DejaVuSans-33" transform="translate(453.90625 0)"/>
       <use xlink:href="#DejaVuSans-31" transform="translate(517.529297 0)"/>
      </g>
     </g>
    </g>
    <g id="xtick_5">
     <g id="line2d_9">
      <path d="M 341.908694 231.452197 
L 341.908694 26.88 
" clip-path="url(#p55853ae981)" style="fill: none; stroke: #b0b0b0; stroke-width: 0.8; stroke-linecap: square"/>
     </g>
     <g id="line2d_10">
      <g>
       <use xlink:href="#mec3f1bea47" x="341.908694" y="231.452197" style="stroke: #000000; stroke-width: 0.8"/>
      </g>
     </g>
     <g id="text_5">
      <!-- 2023-05-20 -->
      <g transform="translate(314.555181 260.833155) rotate(-15) scale(0.1 -0.1)">
       <defs>
        <path id="DejaVuSans-35" d="M 691 4666 
L 3169 4666 
L 3169 4134 
L 1269 4134 
L 1269 2991 
Q 1406 3038 1543 3061 
Q 1681 3084 1819 3084 
Q 2600 3084 3056 2656 
Q 3513 2228 3513 1497 
Q 3513 744 3044 326 
Q 2575 -91 1722 -91 
Q 1428 -91 1123 -41 
Q 819 9 494 109 
L 494 744 
Q 775 591 1075 516 
Q 1375 441 1709 441 
Q 2250 441 2565 725 
Q 2881 1009 2881 1497 
Q 2881 1984 2565 2268 
Q 2250 2553 1709 2553 
Q 1456 2553 1204 2497 
Q 953 2441 691 2322 
L 691 4666 
z
" transform="scale(0.015625)"/>
       </defs>
       <use xlink:href="#DejaVuSans-32"/>
       <use xlink:href="#DejaVuSans-30" transform="translate(63.623047 0)"/>
       <use xlink:href="#DejaVuSans-32" transform="translate(127.246094 0)"/>
       <use xlink:href="#DejaVuSans-33" transform="translate(190.869141 0)"/>
       <use xlink:href="#DejaVuSans-2d" transform="translate(254.492188 0)"/>
       <use xlink:href="#DejaVuSans-30" transform="translate(290.576172 0)"/>
       <use xlink:href="#DejaVuSans-35" transform="translate(354.199219 0)"/>
       <use xlink:href="#DejaVuSans-2d" transform="translate(417.822266 0)"/>
       <use xlink:href="#DejaVuSans-32" transform="translate(453.90625 0)"/>
       <use xlink:href="#DejaVuSans-30" transform="translate(517.529297 0)"/>
      </g>
     </g>
    </g>
    <g id="xtick_6">
     <g id="line2d_11">
      <path d="M 403.540299 231.452197 
L 403.540299 26.88 
" clip-path="url(#p55853ae981)" style="fill: none; stroke: #b0b0b0; stroke-width: 0.8; stroke-linecap: square"/>
     </g>
     <g id="line2d_12">
      <g>
       <use xlink:href="#mec3f1bea47" x="403.540299" y="231.452197" style="stroke: #000000; stroke-width: 0.8"/>
      </g>
     </g>
     <g id="text_6">
      <!-- 2023-07-09 -->
      <g transform="translate(376.186787 260.833155) rotate(-15) scale(0.1 -0.1)">
       <defs>
        <path id="DejaVuSans-37" d="M 525 4666 
L 3525 4666 
L 3525 4397 
L 1831 0 
L 1172 0 
L 2766 4134 
L 525 4134 
L 525 4666 
z
" transform="scale(0.015625)"/>
       </defs>
       <use xlink:href="#DejaVuSans-32"/>
       <use xlink:href="#DejaVuSans-30" transform="translate(63.623047 0)"/>
       <use xlink:href="#DejaVuSans-32" transform="translate(127.246094 0)"/>
       <use xlink:href="#DejaVuSans-33" transform="translate(190.869141 0)"/>
       <use xlink:href="#DejaVuSans-2d" transform="translate(254.492188 0)"/>
       <use xlink:href="#DejaVuSans-30" transform="translate(290.576172 0)"/>
       <use xlink:href="#DejaVuSans-37" transform="translate(354.199219 0)"/>
       <use xlink:href="#DejaVuSans-2d" transform="translate(417.822266 0)"/>
       <use xlink:href="#DejaVuSans-30" transform="translate(453.90625 0)"/>
       <use xlink:href="#DejaVuSans-39" transform="translate(517.529297 0)"/>
      </g>
     </g>
    </g>
    <g id="xtick_7">
     <g id="line2d_13">
      <path d="M 465.171905 231.452197 
L 465.171905 26.88 
" clip-path="url(#p55853ae981)" style="fill: none; stroke: #b0b0b0; stroke-width: 0.8; stroke-linecap: square"/>
     </g>
     <g id="line2d_14">
      <g>
       <use xlink:href="#mec3f1bea47" x="465.171905" y="231.452197" style="stroke: #000000; stroke-width: 0.8"/>
      </g>
     </g>
     <g id="text_7">
      <!-- 2023-08-28 -->
      <g transform="translate(437.818392 260.833155) rotate(-15) scale(0.1 -0.1)">
       <defs>
        <path id="DejaVuSans-38" d="M 2034 2216 
Q 1584 2216 1326 1975 
Q 1069 1734 1069 1313 
Q 1069 891 1326 650 
Q 1584 409 2034 409 
Q 2484 409 2743 651 
Q 3003 894 3003 1313 
Q 3003 1734 2745 1975 
Q 2488 2216 2034 2216 
z
M 1403 2484 
Q 997 2584 770 2862 
Q 544 3141 544 3541 
Q 544 4100 942 4425 
Q 1341 4750 2034 4750 
Q 2731 4750 3128 4425 
Q 3525 4100 3525 3541 
Q 3525 3141 3298 2862 
Q 3072 2584 2669 2484 
Q 3125 2378 3379 2068 
Q 3634 1759 3634 1313 
Q 3634 634 3220 271 
Q 2806 -91 2034 -91 
Q 1263 -91 848 271 
Q 434 634 434 1313 
Q 434 1759 690 2068 
Q 947 2378 1403 2484 
z
M 1172 3481 
Q 1172 3119 1398 2916 
Q 1625 2713 2034 2713 
Q 2441 2713 2670 2916 
Q 2900 3119 2900 3481 
Q 2900 3844 2670 4047 
Q 2441 4250 2034 4250 
Q 1625 4250 1398 4047 
Q 1172 3844 1172 3481 
z
" transform="scale(0.015625)"/>
       </defs>
       <use xlink:href="#DejaVuSans-32"/>
       <use xlink:href="#DejaVuSans-30" transform="translate(63.623047 0)"/>
       <use xlink:href="#DejaVuSans-32" transform="translate(127.246094 0)"/>
       <use xlink:href="#DejaVuSans-33" transform="translate(190.869141 0)"/>
       <use xlink:href="#DejaVuSans-2d" transform="translate(254.492188 0)"/>
       <use xlink:href="#DejaVuSans-30" transform="translate(290.576172 0)"/>
       <use xlink:href="#DejaVuSans-38" transform="translate(354.199219 0)"/>
       <use xlink:href="#DejaVuSans-2d" transform="translate(417.822266 0)"/>
       <use xlink:href="#DejaVuSans-32" transform="translate(453.90625 0)"/>
       <use xlink:href="#DejaVuSans-38" transform="translate(517.529297 0)"/>
      </g>
     </g>
    </g>
    <g id="xtick_8">
     <g id="line2d_15">
      <path d="M 526.80351 231.452197 
L 526.80351 26.88 
" clip-path="url(#p55853ae981)" style="fill: none; stroke: #b0b0b0; stroke-width: 0.8; stroke-linecap: square"/>
     </g>
     <g id="line2d_16">
      <g>
       <use xlink:href="#mec3f1bea47" x="526.80351" y="231.452197" style="stroke: #000000; stroke-width: 0.8"/>
      </g>
     </g>
     <g id="text_8">
      <!-- 2023-10-17 -->
      <g transform="translate(499.449997 260.833155) rotate(-15) scale(0.1 -0.1)">
       <use xlink:href="#DejaVuSans-32"/>
       <use xlink:href="#DejaVuSans-30" transform="translate(63.623047 0)"/>
       <use xlink:href="#DejaVuSans-32" transform="translate(127.246094 0)"/>
       <use xlink:href="#DejaVuSans-33" transform="translate(190.869141 0)"/>
       <use xlink:href="#DejaVuSans-2d" transform="translate(254.492188 0)"/>
       <use xlink:href="#DejaVuSans-31" transform="translate(290.576172 0)"/>
       <use xlink:href="#DejaVuSans-30" transform="translate(354.199219 0)"/>
       <use xlink:href="#DejaVuSans-2d" transform="translate(417.822266 0)"/>
       <use xlink:href="#DejaVuSans-31" transform="translate(453.90625 0)"/>
       <use xlink:href="#DejaVuSans-37" transform="translate(517.529297 0)"/>
      </g>
     </g>
    </g>
    <g id="text_9">
     <!-- Datum -->
     <g transform="translate(302.191719 274.440416) scale(0.1 -0.1)">
      <defs>
       <path id="DejaVuSans-44" d="M 1259 4147 
L 1259 519 
L 2022 519 
Q 2988 519 3436 956 
Q 3884 1394 3884 2338 
Q 3884 3275 3436 3711 
Q 2988 4147 2022 4147 
L 1259 4147 
z
M 628 4666 
L 1925 4666 
Q 3281 4666 3915 4102 
Q 4550 3538 4550 2338 
Q 4550 1131 3912 565 
Q 3275 0 1925 0 
L 628 0 
L 628 4666 
z
" transform="scale(0.015625)"/>
       <path id="DejaVuSans-61" d="M 2194 1759 
Q 1497 1759 1228 1600 
Q 959 1441 959 1056 
Q 959 750 1161 570 
Q 1363 391 1709 391 
Q 2188 391 2477 730 
Q 2766 1069 2766 1631 
L 2766 1759 
L 2194 1759 
z
M 3341 1997 
L 3341 0 
L 2766 0 
L 2766 531 
Q 2569 213 2275 61 
Q 1981 -91 1556 -91 
Q 1019 -91 701 211 
Q 384 513 384 1019 
Q 384 1609 779 1909 
Q 1175 2209 1959 2209 
L 2766 2209 
L 2766 2266 
Q 2766 2663 2505 2880 
Q 2244 3097 1772 3097 
Q 1472 3097 1187 3025 
Q 903 2953 641 2809 
L 641 3341 
Q 956 3463 1253 3523 
Q 1550 3584 1831 3584 
Q 2591 3584 2966 3190 
Q 3341 2797 3341 1997 
z
" transform="scale(0.015625)"/>
       <path id="DejaVuSans-74" d="M 1172 4494 
L 1172 3500 
L 2356 3500 
L 2356 3053 
L 1172 3053 
L 1172 1153 
Q 1172 725 1289 603 
Q 1406 481 1766 481 
L 2356 481 
L 2356 0 
L 1766 0 
Q 1100 0 847 248 
Q 594 497 594 1153 
L 594 3053 
L 172 3053 
L 172 3500 
L 594 3500 
L 594 4494 
L 1172 4494 
z
" transform="scale(0.015625)"/>
       <path id="DejaVuSans-75" d="M 544 1381 
L 544 3500 
L 1119 3500 
L 1119 1403 
Q 1119 906 1312 657 
Q 1506 409 1894 409 
Q 2359 409 2629 706 
Q 2900 1003 2900 1516 
L 2900 3500 
L 3475 3500 
L 3475 0 
L 2900 0 
L 2900 538 
Q 2691 219 2414 64 
Q 2138 -91 1772 -91 
Q 1169 -91 856 284 
Q 544 659 544 1381 
z
M 1991 3584 
L 1991 3584 
z
" transform="scale(0.015625)"/>
       <path id="DejaVuSans-6d" d="M 3328 2828 
Q 3544 3216 3844 3400 
Q 4144 3584 4550 3584 
Q 5097 3584 5394 3201 
Q 5691 2819 5691 2113 
L 5691 0 
L 5113 0 
L 5113 2094 
Q 5113 2597 4934 2840 
Q 4756 3084 4391 3084 
Q 3944 3084 3684 2787 
Q 3425 2491 3425 1978 
L 3425 0 
L 2847 0 
L 2847 2094 
Q 2847 2600 2669 2842 
Q 2491 3084 2119 3084 
Q 1678 3084 1418 2786 
Q 1159 2488 1159 1978 
L 1159 0 
L 581 0 
L 581 3500 
L 1159 3500 
L 1159 2956 
Q 1356 3278 1631 3431 
Q 1906 3584 2284 3584 
Q 2666 3584 2933 3390 
Q 3200 3197 3328 2828 
z
" transform="scale(0.015625)"/>
      </defs>
      <use xlink:href="#DejaVuSans-44"/>
      <use xlink:href="#DejaVuSans-61" transform="translate(77.001953 0)"/>
      <use xlink:href="#DejaVuSans-74" transform="translate(138.28125 0)"/>
      <use xlink:href="#DejaVuSans-75" transform="translate(177.490234 0)"/>
      <use xlink:href="#DejaVuSans-6d" transform="translate(240.869141 0)"/>
     </g>
    </g>
   </g>
   <g id="matplotlib.axis_2">
    <g id="ytick_1">
     <g id="line2d_17">
      <path d="M 73.01 211.826577 
L 565.2 211.826577 
" clip-path="url(#p55853ae981)" style="fill: none; stroke: #b0b0b0; stroke-width: 0.8; stroke-linecap: square"/>
     </g>
     <g id="line2d_18">
      <defs>
       <path id="m75d6205334" d="M 0 0 
L -3.5 0 
" style="stroke: #000000; stroke-width: 0.8"/>
      </defs>
      <g>
       <use xlink:href="#m75d6205334" x="73.01" y="211.826577" style="stroke: #000000; stroke-width: 0.8"/>
      </g>
     </g>
     <g id="text_10">
      <!-- 0.01175 -->
      <g transform="translate(24.656875 215.625796) scale(0.1 -0.1)">
       <defs>
        <path id="DejaVuSans-2e" d="M 684 794 
L 1344 794 
L 1344 0 
L 684 0 
L 684 794 
z
" transform="scale(0.015625)"/>
       </defs>
       <use xlink:href="#DejaVuSans-30"/>
       <use xlink:href="#DejaVuSans-2e" transform="translate(63.623047 0)"/>
       <use xlink:href="#DejaVuSans-30" transform="translate(95.410156 0)"/>
       <use xlink:href="#DejaVuSans-31" transform="translate(159.033203 0)"/>
       <use xlink:href="#DejaVuSans-31" transform="translate(222.65625 0)"/>
       <use xlink:href="#DejaVuSans-37" transform="translate(286.279297 0)"/>
       <use xlink:href="#DejaVuSans-35" transform="translate(349.902344 0)"/>
      </g>
     </g>
    </g>
    <g id="ytick_2">
     <g id="line2d_19">
      <path d="M 73.01 184.769614 
L 565.2 184.769614 
" clip-path="url(#p55853ae981)" style="fill: none; stroke: #b0b0b0; stroke-width: 0.8; stroke-linecap: square"/>
     </g>
     <g id="line2d_20">
      <g>
       <use xlink:href="#m75d6205334" x="73.01" y="184.769614" style="stroke: #000000; stroke-width: 0.8"/>
      </g>
     </g>
     <g id="text_11">
      <!-- 0.01200 -->
      <g transform="translate(24.656875 188.568833) scale(0.1 -0.1)">
       <use xlink:href="#DejaVuSans-30"/>
       <use xlink:href="#DejaVuSans-2e" transform="translate(63.623047 0)"/>
       <use xlink:href="#DejaVuSans-30" transform="translate(95.410156 0)"/>
       <use xlink:href="#DejaVuSans-31" transform="translate(159.033203 0)"/>
       <use xlink:href="#DejaVuSans-32" transform="translate(222.65625 0)"/>
       <use xlink:href="#DejaVuSans-30" transform="translate(286.279297 0)"/>
       <use xlink:href="#DejaVuSans-30" transform="translate(349.902344 0)"/>
      </g>
     </g>
    </g>
    <g id="ytick_3">
     <g id="line2d_21">
      <path d="M 73.01 157.712651 
L 565.2 157.712651 
" clip-path="url(#p55853ae981)" style="fill: none; stroke: #b0b0b0; stroke-width: 0.8; stroke-linecap: square"/>
     </g>
     <g id="line2d_22">
      <g>
       <use xlink:href="#m75d6205334" x="73.01" y="157.712651" style="stroke: #000000; stroke-width: 0.8"/>
      </g>
     </g>
     <g id="text_12">
      <!-- 0.01225 -->
      <g transform="translate(24.656875 161.511869) scale(0.1 -0.1)">
       <use xlink:href="#DejaVuSans-30"/>
       <use xlink:href="#DejaVuSans-2e" transform="translate(63.623047 0)"/>
       <use xlink:href="#DejaVuSans-30" transform="translate(95.410156 0)"/>
       <use xlink:href="#DejaVuSans-31" transform="translate(159.033203 0)"/>
       <use xlink:href="#DejaVuSans-32" transform="translate(222.65625 0)"/>
       <use xlink:href="#DejaVuSans-32" transform="translate(286.279297 0)"/>
       <use xlink:href="#DejaVuSans-35" transform="translate(349.902344 0)"/>
      </g>
     </g>
    </g>
    <g id="ytick_4">
     <g id="line2d_23">
      <path d="M 73.01 130.655687 
L 565.2 130.655687 
" clip-path="url(#p55853ae981)" style="fill: none; stroke: #b0b0b0; stroke-width: 0.8; stroke-linecap: square"/>
     </g>
     <g id="line2d_24">
      <g>
       <use xlink:href="#m75d6205334" x="73.01" y="130.655687" style="stroke: #000000; stroke-width: 0.8"/>
      </g>
     </g>
     <g id="text_13">
      <!-- 0.01250 -->
      <g transform="translate(24.656875 134.454906) scale(0.1 -0.1)">
       <use xlink:href="#DejaVuSans-30"/>
       <use xlink:href="#DejaVuSans-2e" transform="translate(63.623047 0)"/>
       <use xlink:href="#DejaVuSans-30" transform="translate(95.410156 0)"/>
       <use xlink:href="#DejaVuSans-31" transform="translate(159.033203 0)"/>
       <use xlink:href="#DejaVuSans-32" transform="translate(222.65625 0)"/>
       <use xlink:href="#DejaVuSans-35" transform="translate(286.279297 0)"/>
       <use xlink:href="#DejaVuSans-30" transform="translate(349.902344 0)"/>
      </g>
     </g>
    </g>
    <g id="ytick_5">
     <g id="line2d_25">
      <path d="M 73.01 103.598724 
L 565.2 103.598724 
" clip-path="url(#p55853ae981)" style="fill: none; stroke: #b0b0b0; stroke-width: 0.8; stroke-linecap: square"/>
     </g>
     <g id="line2d_26">
      <g>
       <use xlink:href="#m75d6205334" x="73.01" y="103.598724" style="stroke: #000000; stroke-width: 0.8"/>
      </g>
     </g>
     <g id="text_14">
      <!-- 0.01275 -->
      <g transform="translate(24.656875 107.397943) scale(0.1 -0.1)">
       <use xlink:href="#DejaVuSans-30"/>
       <use xlink:href="#DejaVuSans-2e" transform="translate(63.623047 0)"/>
       <use xlink:href="#DejaVuSans-30" transform="translate(95.410156 0)"/>
       <use xlink:href="#DejaVuSans-31" transform="translate(159.033203 0)"/>
       <use xlink:href="#DejaVuSans-32" transform="translate(222.65625 0)"/>
       <use xlink:href="#DejaVuSans-37" transform="translate(286.279297 0)"/>
       <use xlink:href="#DejaVuSans-35" transform="translate(349.902344 0)"/>
      </g>
     </g>
    </g>
    <g id="ytick_6">
     <g id="line2d_27">
      <path d="M 73.01 76.541761 
L 565.2 76.541761 
" clip-path="url(#p55853ae981)" style="fill: none; stroke: #b0b0b0; stroke-width: 0.8; stroke-linecap: square"/>
     </g>
     <g id="line2d_28">
      <g>
       <use xlink:href="#m75d6205334" x="73.01" y="76.541761" style="stroke: #000000; stroke-width: 0.8"/>
      </g>
     </g>
     <g id="text_15">
      <!-- 0.01300 -->
      <g transform="translate(24.656875 80.34098) scale(0.1 -0.1)">
       <use xlink:href="#DejaVuSans-30"/>
       <use xlink:href="#DejaVuSans-2e" transform="translate(63.623047 0)"/>
       <use xlink:href="#DejaVuSans-30" transform="translate(95.410156 0)"/>
       <use xlink:href="#DejaVuSans-31" transform="translate(159.033203 0)"/>
       <use xlink:href="#DejaVuSans-33" transform="translate(222.65625 0)"/>
       <use xlink:href="#DejaVuSans-30" transform="translate(286.279297 0)"/>
       <use xlink:href="#DejaVuSans-30" transform="translate(349.902344 0)"/>
      </g>
     </g>
    </g>
    <g id="ytick_7">
     <g id="line2d_29">
      <path d="M 73.01 49.484798 
L 565.2 49.484798 
" clip-path="url(#p55853ae981)" style="fill: none; stroke: #b0b0b0; stroke-width: 0.8; stroke-linecap: square"/>
     </g>
     <g id="line2d_30">
      <g>
       <use xlink:href="#m75d6205334" x="73.01" y="49.484798" style="stroke: #000000; stroke-width: 0.8"/>
      </g>
     </g>
     <g id="text_16">
      <!-- 0.01325 -->
      <g transform="translate(24.656875 53.284017) scale(0.1 -0.1)">
       <use xlink:href="#DejaVuSans-30"/>
       <use xlink:href="#DejaVuSans-2e" transform="translate(63.623047 0)"/>
       <use xlink:href="#DejaVuSans-30" transform="translate(95.410156 0)"/>
       <use xlink:href="#DejaVuSans-31" transform="translate(159.033203 0)"/>
       <use xlink:href="#DejaVuSans-33" transform="translate(222.65625 0)"/>
       <use xlink:href="#DejaVuSans-32" transform="translate(286.279297 0)"/>
       <use xlink:href="#DejaVuSans-35" transform="translate(349.902344 0)"/>
      </g>
     </g>
    </g>
    <g id="text_17">
     <!-- Weerstand (Ω) -->
     <g transform="translate(18.577187 165.308286) rotate(-90) scale(0.1 -0.1)">
      <defs>
       <path id="DejaVuSans-57" d="M 213 4666 
L 850 4666 
L 1831 722 
L 2809 4666 
L 3519 4666 
L 4500 722 
L 5478 4666 
L 6119 4666 
L 4947 0 
L 4153 0 
L 3169 4050 
L 2175 0 
L 1381 0 
L 213 4666 
z
" transform="scale(0.015625)"/>
       <path id="DejaVuSans-65" d="M 3597 1894 
L 3597 1613 
L 953 1613 
Q 991 1019 1311 708 
Q 1631 397 2203 397 
Q 2534 397 2845 478 
Q 3156 559 3463 722 
L 3463 178 
Q 3153 47 2828 -22 
Q 2503 -91 2169 -91 
Q 1331 -91 842 396 
Q 353 884 353 1716 
Q 353 2575 817 3079 
Q 1281 3584 2069 3584 
Q 2775 3584 3186 3129 
Q 3597 2675 3597 1894 
z
M 3022 2063 
Q 3016 2534 2758 2815 
Q 2500 3097 2075 3097 
Q 1594 3097 1305 2825 
Q 1016 2553 972 2059 
L 3022 2063 
z
" transform="scale(0.015625)"/>
       <path id="DejaVuSans-72" d="M 2631 2963 
Q 2534 3019 2420 3045 
Q 2306 3072 2169 3072 
Q 1681 3072 1420 2755 
Q 1159 2438 1159 1844 
L 1159 0 
L 581 0 
L 581 3500 
L 1159 3500 
L 1159 2956 
Q 1341 3275 1631 3429 
Q 1922 3584 2338 3584 
Q 2397 3584 2469 3576 
Q 2541 3569 2628 3553 
L 2631 2963 
z
" transform="scale(0.015625)"/>
       <path id="DejaVuSans-73" d="M 2834 3397 
L 2834 2853 
Q 2591 2978 2328 3040 
Q 2066 3103 1784 3103 
Q 1356 3103 1142 2972 
Q 928 2841 928 2578 
Q 928 2378 1081 2264 
Q 1234 2150 1697 2047 
L 1894 2003 
Q 2506 1872 2764 1633 
Q 3022 1394 3022 966 
Q 3022 478 2636 193 
Q 2250 -91 1575 -91 
Q 1294 -91 989 -36 
Q 684 19 347 128 
L 347 722 
Q 666 556 975 473 
Q 1284 391 1588 391 
Q 1994 391 2212 530 
Q 2431 669 2431 922 
Q 2431 1156 2273 1281 
Q 2116 1406 1581 1522 
L 1381 1569 
Q 847 1681 609 1914 
Q 372 2147 372 2553 
Q 372 3047 722 3315 
Q 1072 3584 1716 3584 
Q 2034 3584 2315 3537 
Q 2597 3491 2834 3397 
z
" transform="scale(0.015625)"/>
       <path id="DejaVuSans-6e" d="M 3513 2113 
L 3513 0 
L 2938 0 
L 2938 2094 
Q 2938 2591 2744 2837 
Q 2550 3084 2163 3084 
Q 1697 3084 1428 2787 
Q 1159 2491 1159 1978 
L 1159 0 
L 581 0 
L 581 3500 
L 1159 3500 
L 1159 2956 
Q 1366 3272 1645 3428 
Q 1925 3584 2291 3584 
Q 2894 3584 3203 3211 
Q 3513 2838 3513 2113 
z
" transform="scale(0.015625)"/>
       <path id="DejaVuSans-64" d="M 2906 2969 
L 2906 4863 
L 3481 4863 
L 3481 0 
L 2906 0 
L 2906 525 
Q 2725 213 2448 61 
Q 2172 -91 1784 -91 
Q 1150 -91 751 415 
Q 353 922 353 1747 
Q 353 2572 751 3078 
Q 1150 3584 1784 3584 
Q 2172 3584 2448 3432 
Q 2725 3281 2906 2969 
z
M 947 1747 
Q 947 1113 1208 752 
Q 1469 391 1925 391 
Q 2381 391 2643 752 
Q 2906 1113 2906 1747 
Q 2906 2381 2643 2742 
Q 2381 3103 1925 3103 
Q 1469 3103 1208 2742 
Q 947 2381 947 1747 
z
" transform="scale(0.015625)"/>
       <path id="DejaVuSans-20" transform="scale(0.015625)"/>
       <path id="DejaVuSans-28" d="M 1984 4856 
Q 1566 4138 1362 3434 
Q 1159 2731 1159 2009 
Q 1159 1288 1364 580 
Q 1569 -128 1984 -844 
L 1484 -844 
Q 1016 -109 783 600 
Q 550 1309 550 2009 
Q 550 2706 781 3412 
Q 1013 4119 1484 4856 
L 1984 4856 
z
" transform="scale(0.015625)"/>
       <path id="DejaVuSans-3a9" d="M 4647 556 
L 4647 0 
L 2772 0 
L 2772 556 
Q 3325 859 3634 1378 
Q 3944 1897 3944 2528 
Q 3944 3278 3531 3731 
Q 3119 4184 2444 4184 
Q 1769 4184 1355 3729 
Q 941 3275 941 2528 
Q 941 1897 1250 1378 
Q 1563 859 2119 556 
L 2119 0 
L 244 0 
L 244 556 
L 1241 556 
Q 747 991 519 1456 
Q 294 1922 294 2497 
Q 294 3491 894 4106 
Q 1491 4722 2444 4722 
Q 3391 4722 3994 4106 
Q 4594 3494 4594 2528 
Q 4594 1922 4372 1459 
Q 4150 997 3647 556 
L 4647 556 
z
" transform="scale(0.015625)"/>
       <path id="DejaVuSans-29" d="M 513 4856 
L 1013 4856 
Q 1481 4119 1714 3412 
Q 1947 2706 1947 2009 
Q 1947 1309 1714 600 
Q 1481 -109 1013 -844 
L 513 -844 
Q 928 -128 1133 580 
Q 1338 1288 1338 2009 
Q 1338 2731 1133 3434 
Q 928 4138 513 4856 
z
" transform="scale(0.015625)"/>
      </defs>
      <use xlink:href="#DejaVuSans-57"/>
      <use xlink:href="#DejaVuSans-65" transform="translate(93.001953 0)"/>
      <use xlink:href="#DejaVuSans-65" transform="translate(154.525391 0)"/>
      <use xlink:href="#DejaVuSans-72" transform="translate(216.048828 0)"/>
      <use xlink:href="#DejaVuSans-73" transform="translate(257.162109 0)"/>
      <use xlink:href="#DejaVuSans-74" transform="translate(309.261719 0)"/>
      <use xlink:href="#DejaVuSans-61" transform="translate(348.470703 0)"/>
      <use xlink:href="#DejaVuSans-6e" transform="translate(409.75 0)"/>
      <use xlink:href="#DejaVuSans-64" transform="translate(473.128906 0)"/>
      <use xlink:href="#DejaVuSans-20" transform="translate(536.605469 0)"/>
      <use xlink:href="#DejaVuSans-28" transform="translate(568.392578 0)"/>
      <use xlink:href="#DejaVuSans-3a9" transform="translate(607.40625 0)"/>
      <use xlink:href="#DejaVuSans-29" transform="translate(683.822266 0)"/>
     </g>
    </g>
   </g>
   <g id="line2d_31">
    <path d="M 95.382273 193.264722 
L 96.614905 193.086494 
L 97.847537 195.314039 
L 99.080169 198.656377 
L 100.312801 196.892408 
L 101.545433 192.802097 
L 102.778065 190.167186 
L 104.010697 188.13849 
L 105.24333 190.829971 
L 106.475962 191.320918 
L 107.708594 196.830457 
L 108.941226 209.003442 
L 111.40649 193.986567 
L 112.639122 197.118988 
L 113.871754 193.17227 
L 115.104386 196.337651 
L 116.337019 206.003837 
L 117.569651 195.2833 
L 118.802283 196.887855 
L 121.267547 201.260929 
L 122.500179 201.378278 
L 123.732811 197.289011 
L 124.965443 204.507084 
L 126.198075 200.059437 
L 127.430707 194.743471 
L 128.66334 201.382596 
L 129.895972 202.64347 
L 131.128604 199.937451 
L 132.361236 197.701756 
L 133.593868 202.921213 
L 134.8265 214.825402 
L 136.059132 220.077695 
L 137.291764 221.427557 
L 138.524396 219.690435 
L 139.757029 210.625836 
L 140.989661 211.309616 
L 142.222293 211.668656 
L 143.454925 208.37313 
L 144.687557 206.648713 
L 145.920189 203.093577 
L 147.152821 203.54252 
L 148.385453 203.490404 
L 149.618085 201.109841 
L 150.850718 201.228797 
L 152.08335 198.172734 
L 153.315982 213.573541 
L 154.548614 210.590656 
L 155.781246 210.819546 
L 157.013878 215.438001 
L 158.24651 217.078279 
L 159.479142 214.641519 
L 160.711774 211.343718 
L 161.944406 207.702096 
L 163.177039 210.69391 
L 164.409671 206.373646 
L 165.642303 213.049655 
L 166.874935 212.537083 
L 168.107567 215.522984 
L 169.340199 217.525867 
L 170.572831 217.605841 
L 171.805463 213.972647 
L 173.038095 215.954476 
L 174.270728 222.153461 
L 175.50336 220.525134 
L 176.735992 215.840324 
L 177.968624 212.78235 
L 179.201256 210.166136 
L 180.433888 214.352543 
L 181.66652 208.656983 
L 182.899152 207.990949 
L 184.131784 209.227671 
L 185.364416 211.039859 
L 186.597049 209.321108 
L 187.829681 209.313799 
L 189.062313 206.042366 
L 190.294945 204.712558 
L 191.527577 203.579191 
L 192.760209 205.313663 
L 193.992841 207.634885 
L 195.225473 199.41178 
L 196.458105 203.6387 
L 197.690738 216.591911 
L 198.92337 202.30005 
L 200.156002 209.633642 
L 201.388634 207.254592 
L 203.853898 192.669113 
L 205.08653 191.382504 
L 206.319162 198.257146 
L 207.551794 204.354528 
L 208.784426 212.97324 
L 210.017059 202.478401 
L 211.249691 202.354674 
L 212.482323 199.954085 
L 213.714955 192.069835 
L 214.947587 190.703888 
L 216.180219 183.572654 
L 217.412851 172.511204 
L 218.645483 184.200632 
L 219.878115 174.528528 
L 221.110748 171.915591 
L 222.34338 176.68374 
L 223.576012 172.372993 
L 224.808644 175.882889 
L 227.273908 167.398518 
L 228.50654 176.321365 
L 229.739172 173.749233 
L 230.971804 164.168206 
L 232.204437 170.358136 
L 233.437069 166.556865 
L 234.669701 170.377822 
L 235.902333 158.558129 
L 237.134965 164.387281 
L 238.367597 160.213187 
L 239.600229 162.170695 
L 240.832861 166.771579 
L 242.065493 169.166614 
L 243.298125 169.521159 
L 244.530758 164.180273 
L 245.76339 165.579206 
L 248.228654 157.474506 
L 249.461286 158.58928 
L 250.693918 156.310551 
L 251.92655 153.586923 
L 254.391814 156.87007 
L 256.857079 153.246845 
L 258.089711 153.137965 
L 259.322343 156.460173 
L 260.554975 156.482536 
L 261.787607 155.143476 
L 263.020239 154.131316 
L 264.252871 153.526198 
L 265.485503 152.264843 
L 266.718135 156.078906 
L 267.950768 151.510862 
L 269.1834 142.629992 
L 270.416032 148.297739 
L 271.648664 157.568982 
L 272.881296 160.446928 
L 274.113928 161.974538 
L 275.34656 163.831095 
L 276.579192 155.43829 
L 277.811824 149.309317 
L 279.044457 140.77127 
L 280.277089 139.711204 
L 281.509721 142.531717 
L 282.742353 148.899987 
L 285.207617 138.69738 
L 286.440249 139.676223 
L 287.672881 145.646023 
L 288.905513 144.006132 
L 290.138146 146.897378 
L 291.370778 147.421401 
L 292.60341 143.578418 
L 295.068674 133.289328 
L 296.301306 143.813611 
L 297.533938 145.007075 
L 298.76657 144.95542 
L 299.999202 140.231775 
L 301.231834 134.377136 
L 302.464467 147.479878 
L 303.697099 147.610202 
L 304.929731 146.102499 
M 307.394995 140.001861 
L 308.627627 134.712438 
L 309.860259 135.571072 
L 311.092891 134.40054 
L 312.325523 135.299772 
L 313.558156 126.337045 
L 314.790788 139.549381 
L 316.02342 136.738301 
L 317.256052 136.441439 
L 318.488684 135.120114 
L 319.721316 136.146053 
L 320.953948 134.442391 
L 322.18658 131.836354 
L 323.419212 128.807653 
L 324.651844 130.475904 
L 325.884477 125.824509 
L 327.117109 127.044274 
L 328.349741 122.345791 
L 329.582373 132.103515 
L 330.815005 129.26083 
L 332.047637 111.967575 
L 333.280269 112.746191 
L 334.512901 105.051695 
L 335.745533 100.36888 
L 336.978166 118.447641 
L 338.210798 102.558779 
L 339.44343 97.053996 
L 340.676062 101.239725 
L 341.908694 89.482952 
L 343.141326 87.756069 
L 344.373958 92.521268 
L 345.60659 88.043884 
L 348.071854 103.007869 
L 349.304487 94.970751 
L 350.537119 97.931558 
L 351.769751 95.570616 
L 353.002383 89.559426 
L 354.235015 91.976661 
L 355.467647 102.324935 
L 356.700279 101.826299 
L 357.932911 96.807687 
L 359.165543 95.27066 
L 360.398176 94.541956 
L 361.630808 94.118191 
L 362.86344 97.390217 
L 364.096072 97.273829 
L 366.561336 78.862087 
L 367.793968 91.624847 
L 369.0266 93.51114 
L 370.259232 94.396114 
L 371.491865 97.4455 
L 372.724497 94.692519 
L 373.957129 97.719989 
L 375.189761 97.050322 
L 376.422393 94.45017 
L 377.655025 92.402953 
L 378.887657 88.411604 
L 380.120289 91.323907 
L 381.352921 89.406871 
L 382.585553 91.313316 
L 383.818186 86.908108 
L 385.050818 87.801016 
L 386.28345 85.049918 
L 387.516082 89.184422 
L 388.748714 94.84199 
L 389.981346 87.286086 
L 391.213978 91.693901 
L 392.44661 91.201325 
L 393.679242 92.391344 
M 396.144507 98.120474 
L 397.377139 94.243085 
L 398.609771 102.694153 
L 399.842403 92.638677 
L 402.307667 93.879397 
L 403.540299 86.712151 
L 404.772931 64.26662 
L 406.005563 72.303269 
L 407.238196 75.705595 
L 408.470828 77.428603 
L 409.70346 75.603628 
L 410.936092 74.251075 
L 412.168724 72.099277 
L 413.401356 76.334052 
L 414.633988 78.026167 
L 415.86662 74.319686 
L 417.099252 68.505105 
L 418.331885 71.49858 
L 419.564517 71.263412 
L 420.797149 74.265386 
L 423.262413 62.904146 
L 424.495045 64.416383 
L 425.727677 62.440421 
L 426.960309 61.474726 
L 428.192941 64.468024 
L 429.425574 60.272624 
L 430.658206 61.69517 
L 431.890838 62.064737 
L 433.12347 63.728064 
L 434.356102 66.228702 
L 435.588734 59.381703 
L 436.821366 49.749109 
L 438.053998 53.788228 
L 439.28663 56.868777 
L 440.519262 50.926328 
L 441.751895 54.024228 
L 442.984527 53.691466 
L 444.217159 50.230776 
L 445.449791 53.616075 
L 446.682423 55.995304 
L 447.915055 57.108875 
L 449.147687 59.547678 
L 450.380319 56.499407 
L 451.612951 55.172504 
L 452.845584 56.632099 
L 454.078216 56.56631 
L 455.310848 53.663641 
L 456.54348 57.797199 
L 457.776112 53.862083 
L 459.008744 59.717202 
L 460.241376 64.684171 
L 461.474008 66.265015 
L 462.70664 66.741865 
L 463.939272 64.006013 
L 465.171905 55.8134 
L 466.404537 70.164179 
L 467.637169 67.119814 
L 468.869801 68.848321 
L 470.102433 67.595839 
L 471.335065 36.178736 
L 472.567697 41.366725 
L 473.800329 57.41726 
L 475.032961 69.243262 
L 476.265594 52.955176 
L 477.498226 49.120785 
L 478.730858 42.253859 
L 479.96349 50.757865 
L 481.196122 54.839957 
L 482.428754 62.172349 
L 483.661386 65.748468 
L 484.894018 56.775909 
L 486.12665 54.791847 
L 487.359282 56.017534 
L 488.591915 46.583845 
L 489.824547 48.737376 
L 492.289811 56.466013 
L 493.522443 67.311321 
L 494.755075 71.938949 
L 495.987707 68.180036 
L 497.220339 61.388283 
L 498.452971 56.515445 
L 499.685604 53.914236 
L 500.918236 56.372896 
L 502.150868 63.812871 
L 504.616132 75.650171 
L 505.848764 79.773175 
L 507.081396 70.294368 
L 508.314028 70.262569 
L 509.54666 72.919889 
L 510.779293 73.733647 
L 512.011925 72.371477 
L 513.244557 79.528972 
L 514.477189 88.279621 
L 515.709821 84.139164 
L 516.942453 71.929681 
L 518.175085 78.455016 
L 519.407717 90.003225 
L 520.640349 89.897051 
L 521.872981 105.099232 
L 523.105614 110.45659 
L 524.338246 92.074427 
L 525.570878 94.977298 
L 526.80351 104.293058 
L 528.036142 108.356551 
L 529.268774 111.979007 
L 530.501406 128.341491 
L 531.734038 130.471429 
L 534.199303 125.909322 
L 535.431935 126.878682 
L 536.664567 125.133439 
L 537.897199 125.313958 
L 539.129831 122.659278 
L 540.362463 123.077343 
L 541.595095 125.627088 
L 542.827727 122.166759 
L 542.827727 122.166759 
" clip-path="url(#p55853ae981)" style="fill: none; stroke-dasharray: 3.7,1.6; stroke-dashoffset: 0; stroke: #0000ff"/>
   </g>
   <g id="line2d_32">
    <path d="M 95.382273 193.26385 
L 96.614905 193.424071 
L 97.847537 195.130972 
L 99.080169 197.13866 
L 100.312801 196.552469 
L 101.545433 192.979305 
L 102.778065 190.229049 
L 104.010697 190.184152 
L 105.24333 190.492545 
L 106.475962 191.809971 
L 108.941226 201.527719 
L 110.173858 201.361835 
L 111.40649 196.976082 
L 112.639122 194.562233 
L 113.871754 195.733388 
L 115.104386 196.585018 
L 116.337019 196.453859 
L 117.569651 196.569851 
L 118.802283 197.185971 
L 121.267547 201.062497 
L 122.500179 201.553308 
L 123.732811 201.082627 
L 124.965443 200.320861 
L 126.198075 199.828746 
L 127.430707 200.290194 
L 128.66334 201.223214 
L 129.895972 201.381813 
L 131.128604 200.136085 
L 132.361236 199.284557 
L 133.593868 204.115727 
L 134.8265 213.845675 
L 136.059132 220.087269 
L 137.291764 221.058682 
L 138.524396 218.087906 
L 139.757029 212.748016 
L 140.989661 210.775115 
L 142.222293 211.01225 
L 143.454925 208.986928 
L 144.687557 206.032262 
L 145.920189 203.992695 
L 147.152821 203.378797 
L 148.385453 203.249121 
L 149.618085 201.777607 
L 150.850718 200.036514 
L 152.08335 202.885199 
L 153.315982 209.124254 
L 154.548614 211.197545 
L 155.781246 211.453206 
L 157.013878 214.584049 
L 158.24651 216.033915 
L 159.479142 214.146707 
L 161.944406 209.813731 
L 163.177039 208.562591 
L 164.409671 210.273987 
L 165.642303 212.420651 
L 166.874935 213.373345 
L 168.107567 215.321699 
L 169.340199 217.592604 
L 170.572831 217.510769 
L 171.805463 215.726399 
L 173.038095 216.491509 
L 174.270728 220.171022 
L 175.50336 220.395099 
L 176.735992 215.987961 
L 177.968624 213.043661 
L 179.201256 212.318601 
L 181.66652 208.60628 
L 182.899152 208.668507 
L 184.131784 209.183204 
L 185.364416 209.283203 
L 186.597049 209.579856 
L 187.829681 208.873771 
L 189.062313 206.398021 
L 190.294945 204.578284 
L 191.527577 204.739405 
L 192.760209 205.347022 
L 193.992841 205.167211 
L 195.225473 203.942726 
L 196.458105 202.968557 
L 197.690738 204.896779 
L 198.92337 208.035226 
L 200.156002 208.69787 
L 201.388634 206.358691 
L 202.621266 200.062501 
L 203.853898 192.982311 
L 205.08653 192.451185 
L 206.319162 198.525294 
L 207.551794 204.032639 
L 208.784426 204.312666 
L 210.017059 202.820757 
L 211.249691 202.331484 
L 212.482323 199.195789 
L 213.714955 193.499602 
L 214.947587 188.889389 
L 216.180219 185.678743 
L 217.412851 181.385193 
L 218.645483 176.175686 
L 219.878115 174.031041 
L 221.110748 173.844562 
L 222.34338 173.774304 
L 223.576012 174.449644 
L 224.808644 173.288314 
L 226.041276 171.302581 
L 227.273908 171.79972 
L 228.50654 173.830383 
L 229.739172 173.660657 
L 230.971804 169.890095 
L 232.204437 167.780921 
L 233.437069 168.948516 
L 234.669701 167.631404 
L 235.902333 163.513611 
L 237.134965 161.13547 
L 238.367597 161.255273 
L 239.600229 162.910071 
L 240.832861 166.355719 
L 242.065493 169.404688 
L 243.298125 168.787599 
L 244.530758 166.0553 
L 245.76339 163.888057 
L 248.228654 158.795529 
L 249.461286 157.308736 
L 251.92655 155.403912 
L 253.159182 155.20436 
L 254.391814 155.505447 
L 255.624447 154.848285 
L 256.857079 153.23348 
L 258.089711 153.620569 
L 259.322343 156.027075 
L 260.554975 156.638442 
L 261.787607 155.156722 
L 263.020239 154.059041 
L 264.252871 153.692509 
L 266.718135 152.743502 
L 267.950768 151.12828 
L 269.1834 148.009296 
L 270.416032 149.449424 
L 271.648664 156.321268 
L 272.881296 161.007371 
L 274.113928 162.199709 
L 275.34656 161.254362 
L 276.579192 156.329267 
L 277.811824 148.303045 
L 279.044457 141.70086 
L 280.277089 140.326917 
L 281.509721 142.477671 
L 282.742353 144.279691 
L 283.974985 143.241662 
L 285.207617 140.025413 
L 286.440249 139.932991 
L 287.672881 143.508174 
L 288.905513 145.923956 
L 290.138146 146.892751 
L 291.370778 146.897714 
L 292.60341 143.334153 
L 293.836042 138.567547 
L 295.068674 138.793928 
L 296.301306 143.04689 
L 297.533938 145.783084 
L 298.76657 144.216339 
L 299.999202 140.36537 
L 301.231834 141.054047 
L 302.464467 146.276723 
L 303.697099 148.409988 
L 304.929731 145.543516 
M 307.394995 140.159427 
L 308.627627 135.673661 
L 309.860259 134.746471 
L 311.092891 135.032952 
L 312.325523 134.64495 
L 313.558156 135.285329 
L 314.790788 136.592272 
L 316.02342 136.848831 
L 318.488684 136.009451 
L 319.721316 135.378562 
L 320.953948 134.103868 
L 323.419212 130.334281 
L 327.117109 125.675948 
L 328.349741 126.982677 
L 329.582373 130.383581 
L 330.815005 126.594359 
L 332.047637 115.99654 
L 333.280269 109.379208 
L 334.512901 106.654731 
L 335.745533 104.224893 
L 336.978166 102.864944 
L 338.210798 102.559044 
L 339.44343 101.324391 
L 340.676062 96.402109 
L 341.908694 90.651081 
L 343.141326 88.237566 
L 344.373958 89.018367 
L 346.839222 95.052354 
L 348.071854 96.304244 
L 349.304487 96.812097 
L 350.537119 96.643912 
L 351.769751 94.915082 
L 353.002383 91.648649 
L 354.235015 93.330143 
L 355.467647 100.58087 
L 356.700279 101.991452 
L 357.932911 97.295615 
L 359.165543 94.98335 
L 360.398176 94.368068 
L 361.630808 94.836372 
L 362.86344 97.598208 
L 364.096072 96.05976 
L 365.328704 89.564122 
L 366.561336 87.866832 
L 367.793968 91.504558 
L 369.0266 93.733391 
L 370.259232 94.087593 
L 371.491865 95.182617 
L 372.724497 96.874157 
L 373.957129 97.568038 
L 375.189761 96.647093 
L 377.655025 92.558597 
L 378.887657 90.815604 
L 380.120289 90.161399 
L 381.352921 90.627711 
L 382.585553 89.774347 
L 383.818186 87.657552 
L 385.050818 86.971859 
L 388.748714 89.780539 
L 389.981346 91.07697 
L 391.213978 91.640104 
L 392.44661 91.509339 
L 393.679242 92.204075 
M 396.144507 94.989579 
L 397.377139 97.014931 
L 398.609771 95.150858 
L 399.842403 92.799067 
L 401.075035 93.611339 
L 402.307667 93.615744 
L 403.540299 85.361426 
L 404.772931 73.910876 
L 406.005563 71.690958 
L 407.238196 75.368711 
L 408.470828 76.243679 
L 410.936092 74.307509 
L 412.168724 74.466018 
L 413.401356 76.10652 
L 414.633988 76.440828 
L 417.099252 71.718616 
L 418.331885 71.091822 
L 419.564517 71.632932 
L 420.797149 71.185613 
L 422.029781 68.335452 
L 423.262413 64.632121 
L 424.495045 62.758303 
L 425.727677 62.565812 
L 426.960309 62.246442 
L 428.192941 61.678542 
L 429.425574 61.593306 
L 430.658206 61.64943 
L 431.890838 62.164407 
L 433.12347 63.772298 
L 434.356102 63.624859 
L 436.821366 54.342428 
L 438.053998 53.341203 
L 439.28663 53.994531 
L 442.984527 53.713274 
L 444.217159 53.437228 
L 445.449791 53.913937 
L 446.682423 55.771896 
L 447.915055 57.181984 
L 449.147687 57.061371 
L 450.380319 56.594616 
L 451.612951 56.397743 
L 454.078216 56.849051 
L 456.54348 54.913546 
L 457.776112 56.810716 
L 460.241376 64.17345 
L 461.474008 66.57394 
L 462.70664 66.060664 
L 463.939272 63.925677 
L 465.171905 64.491745 
L 466.404537 66.758813 
L 467.637169 68.085954 
L 468.869801 70.437079 
L 470.102433 63.16463 
L 471.335065 44.471235 
L 472.567697 41.695964 
L 473.800329 55.338947 
L 475.032961 58.781457 
L 476.265594 52.5326 
L 477.498226 49.25908 
L 478.730858 49.11489 
L 479.96349 50.475405 
L 481.196122 55.458704 
L 482.428754 61.767951 
L 483.661386 61.802508 
L 484.894018 57.436397 
L 486.12665 55.988492 
L 487.359282 54.023733 
L 488.591915 49.551483 
L 489.824547 48.64889 
L 491.057179 51.901199 
L 492.289811 57.995487 
L 493.522443 65.644374 
L 494.755075 69.487939 
L 495.987707 67.30271 
L 497.220339 61.656157 
L 498.452971 56.940493 
L 499.685604 55.494969 
L 500.918236 57.392016 
L 502.150868 63.002705 
L 503.3835 70.359589 
L 504.616132 75.630094 
L 505.848764 75.103815 
L 507.081396 70.875634 
L 508.314028 70.273824 
L 509.54666 72.61064 
L 510.779293 72.97113 
L 512.011925 74.040613 
L 514.477189 84.603933 
L 515.709821 83.4589 
L 516.942453 78.429004 
L 518.175085 80.240795 
L 520.640349 93.418625 
L 521.872981 103.282983 
L 523.105614 104.787206 
L 524.338246 95.723323 
L 525.570878 95.331795 
L 526.80351 103.602252 
L 528.036142 107.741077 
L 529.268774 114.275019 
L 530.501406 125.706195 
L 531.734038 129.887044 
L 532.96667 127.856557 
L 534.199303 126.785934 
L 535.431935 126.027321 
L 537.897199 124.792001 
L 539.129831 123.506083 
L 540.362463 122.68732 
L 541.595095 123.342334 
L 542.827727 125.628145 
L 542.827727 125.628145 
" clip-path="url(#p55853ae981)" style="fill: none; stroke: #ff0000; stroke-linecap: square"/>
   </g>
   <g id="line2d_33">
    <defs>
     <path id="ma86f4678c6" d="M -2.5 2.5 
L 2.5 -2.5 
M -2.5 -2.5 
L 2.5 2.5 
" style="stroke: #ff0000"/>
    </defs>
    <g clip-path="url(#p55853ae981)">
     <use xlink:href="#ma86f4678c6" x="306.162363" y="143.05218" style="fill: #ff0000; stroke: #ff0000"/>
     <use xlink:href="#ma86f4678c6" x="394.911875" y="93.317214" style="fill: #ff0000; stroke: #ff0000"/>
    </g>
   </g>
   <g id="line2d_34">
    <path d="M 95.382273 193.043715 
L 97.847537 193.703956 
L 99.080169 193.768694 
L 102.778065 193.232906 
L 104.010697 193.429725 
L 105.24333 194.050542 
L 108.941226 197.058133 
L 110.173858 197.626543 
L 111.40649 197.860999 
L 115.104386 198.204673 
L 122.500179 199.401922 
L 126.198075 199.597739 
L 127.430707 199.923517 
L 128.66334 200.619319 
L 129.895972 201.780119 
L 131.128604 203.458159 
L 132.361236 205.654165 
L 134.8265 210.804573 
L 136.059132 212.924084 
L 137.291764 214.187427 
L 138.524396 214.439831 
L 139.757029 213.78142 
L 140.989661 212.45845 
L 143.454925 208.835399 
L 144.687557 206.987161 
L 145.920189 205.397449 
L 147.152821 204.241017 
L 148.385453 203.642181 
L 149.618085 203.679335 
L 150.850718 204.378124 
L 152.08335 205.664292 
L 155.781246 210.530597 
L 157.013878 211.613409 
L 158.24651 212.183555 
L 159.479142 212.270418 
L 163.177039 211.697599 
L 164.409671 211.951908 
L 165.642303 212.56526 
L 168.107567 214.461742 
L 169.340199 215.439953 
L 170.572831 216.264761 
L 171.805463 216.864579 
L 173.038095 217.180462 
L 174.270728 217.126926 
L 175.50336 216.635893 
L 176.735992 215.742458 
L 181.66652 211.111438 
L 182.899152 210.204715 
L 185.364416 208.761175 
L 190.294945 206.163694 
L 191.527577 205.768157 
L 192.760209 205.562564 
L 195.225473 205.571933 
L 196.458105 205.627643 
L 197.690738 205.510764 
L 198.92337 205.068238 
L 200.156002 204.273631 
L 202.621266 202.202842 
L 203.853898 201.468952 
L 205.08653 201.242024 
L 207.551794 201.746398 
L 208.784426 201.637783 
L 210.017059 200.754836 
L 211.249691 198.956544 
L 212.482323 196.306877 
L 213.714955 193.011648 
L 217.412851 182.39378 
L 218.645483 179.566157 
L 219.878115 177.302028 
L 221.110748 175.581318 
L 222.34338 174.328876 
L 223.576012 173.415067 
L 226.041276 172.07039 
L 228.50654 170.765706 
L 229.739172 169.93665 
L 232.204437 167.927319 
L 234.669701 165.923909 
L 235.902333 165.155578 
L 237.134965 164.701198 
L 238.367597 164.605013 
L 242.065493 165.185159 
L 243.298125 164.927129 
L 244.530758 164.210942 
L 245.76339 163.080918 
L 250.693918 157.413397 
L 251.92655 156.402202 
L 253.159182 155.670799 
L 254.391814 155.179513 
L 255.624447 154.868333 
L 258.089711 154.604112 
L 260.554975 154.395141 
L 263.020239 153.784586 
L 265.485503 153.042297 
L 266.718135 152.834281 
L 267.950768 152.881188 
L 269.1834 153.298898 
L 272.881296 155.613389 
L 274.113928 155.554494 
L 275.34656 154.607809 
L 276.579192 152.837263 
L 280.277089 146.238097 
L 281.509721 144.742893 
L 282.742353 143.72812 
L 283.974985 143.101003 
L 285.207617 142.80844 
L 286.440249 142.806843 
L 288.905513 143.154593 
L 290.138146 143.167154 
L 291.370778 142.946328 
L 293.836042 142.144996 
L 295.068674 141.921236 
L 296.301306 141.934686 
L 301.231834 142.479532 
L 302.464467 142.391289 
L 303.697099 141.968089 
L 304.929731 141.099558 
M 307.394995 139.85515 
L 309.860259 137.135565 
L 311.092891 136.08229 
L 312.325523 135.385614 
L 313.558156 135.059565 
L 317.256052 135.008997 
L 318.488684 134.753587 
L 319.721316 134.238142 
L 320.953948 133.459842 
L 322.18658 132.463762 
L 324.651844 130.074329 
L 327.117109 127.230537 
L 328.349741 125.462383 
L 329.582373 123.267171 
L 330.815005 120.545827 
L 336.978166 104.833869 
L 339.44343 99.272222 
L 340.676062 96.827078 
L 341.908694 94.869729 
L 343.141326 93.583239 
L 344.373958 93.040173 
L 345.60659 93.152213 
L 346.839222 93.693936 
L 349.304487 94.979589 
L 351.769751 95.780817 
L 355.467647 96.844796 
L 356.700279 96.936118 
L 357.932911 96.696338 
L 359.165543 96.154277 
L 360.398176 95.396616 
L 362.86344 93.523476 
L 364.096072 92.564071 
L 365.328704 91.816205 
L 366.561336 91.519782 
L 367.793968 91.781525 
L 369.0266 92.477951 
L 371.491865 94.140432 
L 372.724497 94.654718 
L 373.957129 94.775436 
L 375.189761 94.463299 
L 376.422393 93.766288 
L 378.887657 91.765244 
L 381.352921 89.875057 
L 382.585553 89.170355 
L 383.818186 88.707218 
L 385.050818 88.558334 
L 386.28345 88.770768 
L 387.516082 89.324767 
L 388.748714 90.138126 
L 391.213978 92.219646 
L 393.679242 94.319003 
M 396.144507 94.952868 
L 397.377139 94.996805 
L 398.609771 94.249959 
L 399.842403 92.620075 
L 401.075035 90.161588 
L 403.540299 83.703984 
L 404.772931 80.546087 
L 406.005563 78.024604 
L 407.238196 76.288549 
L 408.470828 75.224868 
L 409.70346 74.631286 
L 410.936092 74.3299 
L 413.401356 74.017851 
L 414.633988 73.717603 
L 415.86662 73.196163 
L 417.099252 72.46706 
L 418.331885 71.57197 
L 419.564517 70.513181 
L 422.029781 67.892172 
L 424.495045 65.227269 
L 425.727677 64.188827 
L 426.960309 63.399972 
L 428.192941 62.818732 
L 431.890838 61.38751 
L 433.12347 60.609039 
L 434.356102 59.514785 
L 438.053998 55.475258 
L 439.28663 54.481638 
L 440.519262 53.801211 
L 441.751895 53.44576 
L 442.984527 53.408636 
L 444.217159 53.661639 
L 446.682423 54.729399 
L 447.915055 55.28328 
L 449.147687 55.694906 
L 451.612951 56.091571 
L 452.845584 56.257915 
L 454.078216 56.560688 
L 455.310848 57.10795 
L 456.54348 57.971559 
L 457.776112 59.152117 
L 460.241376 61.967819 
L 461.474008 63.172671 
L 462.70664 63.994794 
L 463.939272 64.370517 
L 465.171905 64.294865 
L 466.404537 63.720559 
L 467.637169 62.548069 
L 468.869801 60.761302 
L 471.335065 56.456789 
L 472.567697 54.847788 
L 473.800329 53.853312 
L 475.032961 53.242812 
L 476.265594 52.816461 
L 477.498226 52.629064 
L 478.730858 52.854198 
L 479.96349 53.530645 
L 482.428754 55.288169 
L 483.661386 55.723514 
L 484.894018 55.68613 
L 487.359282 55.021565 
L 488.591915 55.039321 
L 489.824547 55.634927 
L 491.057179 56.828006 
L 493.522443 59.914743 
L 494.755075 61.029552 
L 495.987707 61.574424 
L 498.452971 61.848656 
L 499.685604 62.382319 
L 500.918236 63.542758 
L 502.150868 65.277339 
L 504.616132 69.251042 
L 505.848764 70.862782 
L 507.081396 72.093265 
L 510.779293 75.153405 
L 512.011925 76.420883 
L 514.477189 79.376151 
L 515.709821 81.026345 
L 516.942453 82.978978 
L 518.175085 85.426641 
L 520.640349 91.592694 
L 523.105614 97.875158 
L 525.570878 104.092865 
L 526.80351 107.750436 
L 530.501406 119.773814 
L 531.734038 122.885578 
L 532.96667 125.038005 
L 534.199303 126.235756 
L 535.431935 126.638676 
L 536.664567 126.455885 
L 537.897199 125.889693 
L 540.362463 124.232681 
L 542.827727 122.408047 
L 542.827727 122.408047 
" clip-path="url(#p55853ae981)" style="fill: none; stroke: #008000; stroke-width: 1.5; stroke-linecap: square"/>
   </g>
   <g id="patch_3">
    <path d="M 73.01 231.452197 
L 73.01 26.88 
" style="fill: none; stroke: #000000; stroke-width: 0.8; stroke-linejoin: miter; stroke-linecap: square"/>
   </g>
   <g id="patch_4">
    <path d="M 565.2 231.452197 
L 565.2 26.88 
" style="fill: none; stroke: #000000; stroke-width: 0.8; stroke-linejoin: miter; stroke-linecap: square"/>
   </g>
   <g id="patch_5">
    <path d="M 73.01 231.452197 
L 565.2 231.452197 
" style="fill: none; stroke: #000000; stroke-width: 0.8; stroke-linejoin: miter; stroke-linecap: square"/>
   </g>
   <g id="patch_6">
    <path d="M 73.01 26.88 
L 565.2 26.88 
" style="fill: none; stroke: #000000; stroke-width: 0.8; stroke-linejoin: miter; stroke-linecap: square"/>
   </g>
   <g id="text_18">
    <!-- Plot datapunt [0] met Butterworth filter -->
    <g transform="translate(200.655625 20.88) scale(0.12 -0.12)">
     <defs>
      <path id="DejaVuSans-50" d="M 1259 4147 
L 1259 2394 
L 2053 2394 
Q 2494 2394 2734 2622 
Q 2975 2850 2975 3272 
Q 2975 3691 2734 3919 
Q 2494 4147 2053 4147 
L 1259 4147 
z
M 628 4666 
L 2053 4666 
Q 2838 4666 3239 4311 
Q 3641 3956 3641 3272 
Q 3641 2581 3239 2228 
Q 2838 1875 2053 1875 
L 1259 1875 
L 1259 0 
L 628 0 
L 628 4666 
z
" transform="scale(0.015625)"/>
      <path id="DejaVuSans-6c" d="M 603 4863 
L 1178 4863 
L 1178 0 
L 603 0 
L 603 4863 
z
" transform="scale(0.015625)"/>
      <path id="DejaVuSans-6f" d="M 1959 3097 
Q 1497 3097 1228 2736 
Q 959 2375 959 1747 
Q 959 1119 1226 758 
Q 1494 397 1959 397 
Q 2419 397 2687 759 
Q 2956 1122 2956 1747 
Q 2956 2369 2687 2733 
Q 2419 3097 1959 3097 
z
M 1959 3584 
Q 2709 3584 3137 3096 
Q 3566 2609 3566 1747 
Q 3566 888 3137 398 
Q 2709 -91 1959 -91 
Q 1206 -91 779 398 
Q 353 888 353 1747 
Q 353 2609 779 3096 
Q 1206 3584 1959 3584 
z
" transform="scale(0.015625)"/>
      <path id="DejaVuSans-70" d="M 1159 525 
L 1159 -1331 
L 581 -1331 
L 581 3500 
L 1159 3500 
L 1159 2969 
Q 1341 3281 1617 3432 
Q 1894 3584 2278 3584 
Q 2916 3584 3314 3078 
Q 3713 2572 3713 1747 
Q 3713 922 3314 415 
Q 2916 -91 2278 -91 
Q 1894 -91 1617 61 
Q 1341 213 1159 525 
z
M 3116 1747 
Q 3116 2381 2855 2742 
Q 2594 3103 2138 3103 
Q 1681 3103 1420 2742 
Q 1159 2381 1159 1747 
Q 1159 1113 1420 752 
Q 1681 391 2138 391 
Q 2594 391 2855 752 
Q 3116 1113 3116 1747 
z
" transform="scale(0.015625)"/>
      <path id="DejaVuSans-5b" d="M 550 4863 
L 1875 4863 
L 1875 4416 
L 1125 4416 
L 1125 -397 
L 1875 -397 
L 1875 -844 
L 550 -844 
L 550 4863 
z
" transform="scale(0.015625)"/>
      <path id="DejaVuSans-5d" d="M 1947 4863 
L 1947 -844 
L 622 -844 
L 622 -397 
L 1369 -397 
L 1369 4416 
L 622 4416 
L 622 4863 
L 1947 4863 
z
" transform="scale(0.015625)"/>
      <path id="DejaVuSans-42" d="M 1259 2228 
L 1259 519 
L 2272 519 
Q 2781 519 3026 730 
Q 3272 941 3272 1375 
Q 3272 1813 3026 2020 
Q 2781 2228 2272 2228 
L 1259 2228 
z
M 1259 4147 
L 1259 2741 
L 2194 2741 
Q 2656 2741 2882 2914 
Q 3109 3088 3109 3444 
Q 3109 3797 2882 3972 
Q 2656 4147 2194 4147 
L 1259 4147 
z
M 628 4666 
L 2241 4666 
Q 2963 4666 3353 4366 
Q 3744 4066 3744 3513 
Q 3744 3084 3544 2831 
Q 3344 2578 2956 2516 
Q 3422 2416 3680 2098 
Q 3938 1781 3938 1306 
Q 3938 681 3513 340 
Q 3088 0 2303 0 
L 628 0 
L 628 4666 
z
" transform="scale(0.015625)"/>
      <path id="DejaVuSans-77" d="M 269 3500 
L 844 3500 
L 1563 769 
L 2278 3500 
L 2956 3500 
L 3675 769 
L 4391 3500 
L 4966 3500 
L 4050 0 
L 3372 0 
L 2619 2869 
L 1863 0 
L 1184 0 
L 269 3500 
z
" transform="scale(0.015625)"/>
      <path id="DejaVuSans-68" d="M 3513 2113 
L 3513 0 
L 2938 0 
L 2938 2094 
Q 2938 2591 2744 2837 
Q 2550 3084 2163 3084 
Q 1697 3084 1428 2787 
Q 1159 2491 1159 1978 
L 1159 0 
L 581 0 
L 581 4863 
L 1159 4863 
L 1159 2956 
Q 1366 3272 1645 3428 
Q 1925 3584 2291 3584 
Q 2894 3584 3203 3211 
Q 3513 2838 3513 2113 
z
" transform="scale(0.015625)"/>
      <path id="DejaVuSans-66" d="M 2375 4863 
L 2375 4384 
L 1825 4384 
Q 1516 4384 1395 4259 
Q 1275 4134 1275 3809 
L 1275 3500 
L 2222 3500 
L 2222 3053 
L 1275 3053 
L 1275 0 
L 697 0 
L 697 3053 
L 147 3053 
L 147 3500 
L 697 3500 
L 697 3744 
Q 697 4328 969 4595 
Q 1241 4863 1831 4863 
L 2375 4863 
z
" transform="scale(0.015625)"/>
      <path id="DejaVuSans-69" d="M 603 3500 
L 1178 3500 
L 1178 0 
L 603 0 
L 603 3500 
z
M 603 4863 
L 1178 4863 
L 1178 4134 
L 603 4134 
L 603 4863 
z
" transform="scale(0.015625)"/>
     </defs>
     <use xlink:href="#DejaVuSans-50"/>
     <use xlink:href="#DejaVuSans-6c" transform="translate(60.302734 0)"/>
     <use xlink:href="#DejaVuSans-6f" transform="translate(88.085938 0)"/>
     <use xlink:href="#DejaVuSans-74" transform="translate(149.267578 0)"/>
     <use xlink:href="#DejaVuSans-20" transform="translate(188.476562 0)"/>
     <use xlink:href="#DejaVuSans-64" transform="translate(220.263672 0)"/>
     <use xlink:href="#DejaVuSans-61" transform="translate(283.740234 0)"/>
     <use xlink:href="#DejaVuSans-74" transform="translate(345.019531 0)"/>
     <use xlink:href="#DejaVuSans-61" transform="translate(384.228516 0)"/>
     <use xlink:href="#DejaVuSans-70" transform="translate(445.507812 0)"/>
     <use xlink:href="#DejaVuSans-75" transform="translate(508.984375 0)"/>
     <use xlink:href="#DejaVuSans-6e" transform="translate(572.363281 0)"/>
     <use xlink:href="#DejaVuSans-74" transform="translate(635.742188 0)"/>
     <use xlink:href="#DejaVuSans-20" transform="translate(674.951172 0)"/>
     <use xlink:href="#DejaVuSans-5b" transform="translate(706.738281 0)"/>
     <use xlink:href="#DejaVuSans-30" transform="translate(745.751953 0)"/>
     <use xlink:href="#DejaVuSans-5d" transform="translate(809.375 0)"/>
     <use xlink:href="#DejaVuSans-20" transform="translate(848.388672 0)"/>
     <use xlink:href="#DejaVuSans-6d" transform="translate(880.175781 0)"/>
     <use xlink:href="#DejaVuSans-65" transform="translate(977.587891 0)"/>
     <use xlink:href="#DejaVuSans-74" transform="translate(1039.111328 0)"/>
     <use xlink:href="#DejaVuSans-20" transform="translate(1078.320312 0)"/>
     <use xlink:href="#DejaVuSans-42" transform="translate(1110.107422 0)"/>
     <use xlink:href="#DejaVuSans-75" transform="translate(1178.710938 0)"/>
     <use xlink:href="#DejaVuSans-74" transform="translate(1242.089844 0)"/>
     <use xlink:href="#DejaVuSans-74" transform="translate(1281.298828 0)"/>
     <use xlink:href="#DejaVuSans-65" transform="translate(1320.507812 0)"/>
     <use xlink:href="#DejaVuSans-72" transform="translate(1382.03125 0)"/>
     <use xlink:href="#DejaVuSans-77" transform="translate(1423.144531 0)"/>
     <use xlink:href="#DejaVuSans-6f" transform="translate(1504.931641 0)"/>
     <use xlink:href="#DejaVuSans-72" transform="translate(1566.113281 0)"/>
     <use xlink:href="#DejaVuSans-74" transform="translate(1607.226562 0)"/>
     <use xlink:href="#DejaVuSans-68" transform="translate(1646.435547 0)"/>
     <use xlink:href="#DejaVuSans-20" transform="translate(1709.814453 0)"/>
     <use xlink:href="#DejaVuSans-66" transform="translate(1741.601562 0)"/>
     <use xlink:href="#DejaVuSans-69" transform="translate(1776.806641 0)"/>
     <use xlink:href="#DejaVuSans-6c" transform="translate(1804.589844 0)"/>
     <use xlink:href="#DejaVuSans-74" transform="translate(1832.373047 0)"/>
     <use xlink:href="#DejaVuSans-65" transform="translate(1871.582031 0)"/>
     <use xlink:href="#DejaVuSans-72" transform="translate(1933.105469 0)"/>
    </g>
   </g>
   <g id="legend_1">
    <g id="patch_7">
     <path d="M 80.01 93.5925 
L 221.581875 93.5925 
Q 223.581875 93.5925 223.581875 91.5925 
L 223.581875 33.88 
Q 223.581875 31.88 221.581875 31.88 
L 80.01 31.88 
Q 78.01 31.88 78.01 33.88 
L 78.01 91.5925 
Q 78.01 93.5925 80.01 93.5925 
z
" style="fill: #ffffff; opacity: 0.8; stroke: #cccccc; stroke-linejoin: miter"/>
    </g>
    <g id="line2d_35">
     <path d="M 82.01 39.978437 
L 92.01 39.978437 
L 102.01 39.978437 
" style="fill: none; stroke-dasharray: 3.7,1.6; stroke-dashoffset: 0; stroke: #0000ff"/>
    </g>
    <g id="text_19">
     <!-- ruwe data -->
     <g transform="translate(110.01 43.478437) scale(0.1 -0.1)">
      <use xlink:href="#DejaVuSans-72"/>
      <use xlink:href="#DejaVuSans-75" transform="translate(41.113281 0)"/>
      <use xlink:href="#DejaVuSans-77" transform="translate(104.492188 0)"/>
      <use xlink:href="#DejaVuSans-65" transform="translate(186.279297 0)"/>
      <use xlink:href="#DejaVuSans-20" transform="translate(247.802734 0)"/>
      <use xlink:href="#DejaVuSans-64" transform="translate(279.589844 0)"/>
      <use xlink:href="#DejaVuSans-61" transform="translate(343.066406 0)"/>
      <use xlink:href="#DejaVuSans-74" transform="translate(404.345703 0)"/>
      <use xlink:href="#DejaVuSans-61" transform="translate(443.554688 0)"/>
     </g>
    </g>
    <g id="line2d_36">
     <path d="M 82.01 54.656562 
L 92.01 54.656562 
L 102.01 54.656562 
" style="fill: none; stroke: #ff0000; stroke-linecap: square"/>
    </g>
    <g id="text_20">
     <!-- gefilterde data 3d -->
     <g transform="translate(110.01 58.156562) scale(0.1 -0.1)">
      <defs>
       <path id="DejaVuSans-67" d="M 2906 1791 
Q 2906 2416 2648 2759 
Q 2391 3103 1925 3103 
Q 1463 3103 1205 2759 
Q 947 2416 947 1791 
Q 947 1169 1205 825 
Q 1463 481 1925 481 
Q 2391 481 2648 825 
Q 2906 1169 2906 1791 
z
M 3481 434 
Q 3481 -459 3084 -895 
Q 2688 -1331 1869 -1331 
Q 1566 -1331 1297 -1286 
Q 1028 -1241 775 -1147 
L 775 -588 
Q 1028 -725 1275 -790 
Q 1522 -856 1778 -856 
Q 2344 -856 2625 -561 
Q 2906 -266 2906 331 
L 2906 616 
Q 2728 306 2450 153 
Q 2172 0 1784 0 
Q 1141 0 747 490 
Q 353 981 353 1791 
Q 353 2603 747 3093 
Q 1141 3584 1784 3584 
Q 2172 3584 2450 3431 
Q 2728 3278 2906 2969 
L 2906 3500 
L 3481 3500 
L 3481 434 
z
" transform="scale(0.015625)"/>
      </defs>
      <use xlink:href="#DejaVuSans-67"/>
      <use xlink:href="#DejaVuSans-65" transform="translate(63.476562 0)"/>
      <use xlink:href="#DejaVuSans-66" transform="translate(125 0)"/>
      <use xlink:href="#DejaVuSans-69" transform="translate(160.205078 0)"/>
      <use xlink:href="#DejaVuSans-6c" transform="translate(187.988281 0)"/>
      <use xlink:href="#DejaVuSans-74" transform="translate(215.771484 0)"/>
      <use xlink:href="#DejaVuSans-65" transform="translate(254.980469 0)"/>
      <use xlink:href="#DejaVuSans-72" transform="translate(316.503906 0)"/>
      <use xlink:href="#DejaVuSans-64" transform="translate(355.867188 0)"/>
      <use xlink:href="#DejaVuSans-65" transform="translate(419.34375 0)"/>
      <use xlink:href="#DejaVuSans-20" transform="translate(480.867188 0)"/>
      <use xlink:href="#DejaVuSans-64" transform="translate(512.654297 0)"/>
      <use xlink:href="#DejaVuSans-61" transform="translate(576.130859 0)"/>
      <use xlink:href="#DejaVuSans-74" transform="translate(637.410156 0)"/>
      <use xlink:href="#DejaVuSans-61" transform="translate(676.619141 0)"/>
      <use xlink:href="#DejaVuSans-20" transform="translate(737.898438 0)"/>
      <use xlink:href="#DejaVuSans-33" transform="translate(769.685547 0)"/>
      <use xlink:href="#DejaVuSans-64" transform="translate(833.308594 0)"/>
     </g>
    </g>
    <g id="line2d_37">
     <g>
      <use xlink:href="#ma86f4678c6" x="92.01" y="69.334687" style="fill: #ff0000; stroke: #ff0000"/>
     </g>
    </g>
    <g id="text_21">
     <!-- ontbrekende waarden -->
     <g transform="translate(110.01 72.834687) scale(0.1 -0.1)">
      <defs>
       <path id="DejaVuSans-62" d="M 3116 1747 
Q 3116 2381 2855 2742 
Q 2594 3103 2138 3103 
Q 1681 3103 1420 2742 
Q 1159 2381 1159 1747 
Q 1159 1113 1420 752 
Q 1681 391 2138 391 
Q 2594 391 2855 752 
Q 3116 1113 3116 1747 
z
M 1159 2969 
Q 1341 3281 1617 3432 
Q 1894 3584 2278 3584 
Q 2916 3584 3314 3078 
Q 3713 2572 3713 1747 
Q 3713 922 3314 415 
Q 2916 -91 2278 -91 
Q 1894 -91 1617 61 
Q 1341 213 1159 525 
L 1159 0 
L 581 0 
L 581 4863 
L 1159 4863 
L 1159 2969 
z
" transform="scale(0.015625)"/>
       <path id="DejaVuSans-6b" d="M 581 4863 
L 1159 4863 
L 1159 1991 
L 2875 3500 
L 3609 3500 
L 1753 1863 
L 3688 0 
L 2938 0 
L 1159 1709 
L 1159 0 
L 581 0 
L 581 4863 
z
" transform="scale(0.015625)"/>
      </defs>
      <use xlink:href="#DejaVuSans-6f"/>
      <use xlink:href="#DejaVuSans-6e" transform="translate(61.181641 0)"/>
      <use xlink:href="#DejaVuSans-74" transform="translate(124.560547 0)"/>
      <use xlink:href="#DejaVuSans-62" transform="translate(163.769531 0)"/>
      <use xlink:href="#DejaVuSans-72" transform="translate(227.246094 0)"/>
      <use xlink:href="#DejaVuSans-65" transform="translate(266.109375 0)"/>
      <use xlink:href="#DejaVuSans-6b" transform="translate(327.632812 0)"/>
      <use xlink:href="#DejaVuSans-65" transform="translate(381.917969 0)"/>
      <use xlink:href="#DejaVuSans-6e" transform="translate(443.441406 0)"/>
      <use xlink:href="#DejaVuSans-64" transform="translate(506.820312 0)"/>
      <use xlink:href="#DejaVuSans-65" transform="translate(570.296875 0)"/>
      <use xlink:href="#DejaVuSans-20" transform="translate(631.820312 0)"/>
      <use xlink:href="#DejaVuSans-77" transform="translate(663.607422 0)"/>
      <use xlink:href="#DejaVuSans-61" transform="translate(745.394531 0)"/>
      <use xlink:href="#DejaVuSans-61" transform="translate(806.673828 0)"/>
      <use xlink:href="#DejaVuSans-72" transform="translate(867.953125 0)"/>
      <use xlink:href="#DejaVuSans-64" transform="translate(907.316406 0)"/>
      <use xlink:href="#DejaVuSans-65" transform="translate(970.792969 0)"/>
      <use xlink:href="#DejaVuSans-6e" transform="translate(1032.316406 0)"/>
     </g>
    </g>
    <g id="line2d_38">
     <path d="M 82.01 84.012812 
L 92.01 84.012812 
L 102.01 84.012812 
" style="fill: none; stroke: #008000; stroke-width: 1.5; stroke-linecap: square"/>
    </g>
    <g id="text_22">
     <!-- gefilterde data 14d -->
     <g transform="translate(110.01 87.512812) scale(0.1 -0.1)">
      <defs>
       <path id="DejaVuSans-34" d="M 2419 4116 
L 825 1625 
L 2419 1625 
L 2419 4116 
z
M 2253 4666 
L 3047 4666 
L 3047 1625 
L 3713 1625 
L 3713 1100 
L 3047 1100 
L 3047 0 
L 2419 0 
L 2419 1100 
L 313 1100 
L 313 1709 
L 2253 4666 
z
" transform="scale(0.015625)"/>
      </defs>
      <use xlink:href="#DejaVuSans-67"/>
      <use xlink:href="#DejaVuSans-65" transform="translate(63.476562 0)"/>
      <use xlink:href="#DejaVuSans-66" transform="translate(125 0)"/>
      <use xlink:href="#DejaVuSans-69" transform="translate(160.205078 0)"/>
      <use xlink:href="#DejaVuSans-6c" transform="translate(187.988281 0)"/>
      <use xlink:href="#DejaVuSans-74" transform="translate(215.771484 0)"/>
      <use xlink:href="#DejaVuSans-65" transform="translate(254.980469 0)"/>
      <use xlink:href="#DejaVuSans-72" transform="translate(316.503906 0)"/>
      <use xlink:href="#DejaVuSans-64" transform="translate(355.867188 0)"/>
      <use xlink:href="#DejaVuSans-65" transform="translate(419.34375 0)"/>
      <use xlink:href="#DejaVuSans-20" transform="translate(480.867188 0)"/>
      <use xlink:href="#DejaVuSans-64" transform="translate(512.654297 0)"/>
      <use xlink:href="#DejaVuSans-61" transform="translate(576.130859 0)"/>
      <use xlink:href="#DejaVuSans-74" transform="translate(637.410156 0)"/>
      <use xlink:href="#DejaVuSans-61" transform="translate(676.619141 0)"/>
      <use xlink:href="#DejaVuSans-20" transform="translate(737.898438 0)"/>
      <use xlink:href="#DejaVuSans-31" transform="translate(769.685547 0)"/>
      <use xlink:href="#DejaVuSans-34" transform="translate(833.308594 0)"/>
      <use xlink:href="#DejaVuSans-64" transform="translate(896.931641 0)"/>
     </g>
    </g>
   </g>
  </g>
 </g>
 <defs>
  <clipPath id="p55853ae981">
   <rect x="73.01" y="26.88" width="492.19" height="204.572197"/>
  </clipPath>
 </defs>
</svg>
